<mxfile host="app.diagrams.net" modified="2023-04-22T12:11:37.828Z" agent="Mozilla/5.0 (Windows NT 10.0; Win64; x64) AppleWebKit/537.36 (KHTML, like Gecko) Chrome/112.0.0.0 Safari/537.36" etag="8RCRMghpl23Csdpndsab" version="21.2.1" type="device">
  <diagram name="Page-1" id="w0TBq3C-Gmoq3feNsOyL">
    <mxGraphModel dx="880" dy="452" grid="1" gridSize="10" guides="1" tooltips="1" connect="1" arrows="1" fold="1" page="1" pageScale="1.25" pageWidth="827" pageHeight="1169" math="0" shadow="0">
      <root>
        <mxCell id="0" />
        <mxCell id="1" parent="0" />
        <mxCell id="nJe9BszsL9_7w_oQmeMu-83" value="" style="shape=cube;whiteSpace=wrap;html=1;boundedLbl=1;backgroundOutline=1;darkOpacity=0.05;darkOpacity2=0.1;" vertex="1" parent="1">
          <mxGeometry x="30" y="420" width="290" height="200" as="geometry" />
        </mxCell>
        <mxCell id="nJe9BszsL9_7w_oQmeMu-84" value="Google Web&lt;br&gt;Server" style="text;html=1;strokeColor=none;fillColor=none;align=center;verticalAlign=middle;whiteSpace=wrap;rounded=0;fontSize=16;" vertex="1" parent="1">
          <mxGeometry x="155" y="460" width="60" height="30" as="geometry" />
        </mxCell>
        <mxCell id="nJe9BszsL9_7w_oQmeMu-85" value="" style="rounded=0;whiteSpace=wrap;html=1;" vertex="1" parent="1">
          <mxGeometry x="70" y="530" width="230" height="60" as="geometry" />
        </mxCell>
        <mxCell id="nJe9BszsL9_7w_oQmeMu-86" value="&lt;font style=&quot;font-size: 14px;&quot;&gt;Firebase Backend as a service&amp;nbsp;&lt;/font&gt;" style="text;html=1;strokeColor=none;fillColor=none;align=left;verticalAlign=middle;whiteSpace=wrap;rounded=0;" vertex="1" parent="1">
          <mxGeometry x="70" y="545" width="230" height="30" as="geometry" />
        </mxCell>
        <mxCell id="nJe9BszsL9_7w_oQmeMu-87" value="" style="shape=cube;whiteSpace=wrap;html=1;boundedLbl=1;backgroundOutline=1;darkOpacity=0.05;darkOpacity2=0.1;" vertex="1" parent="1">
          <mxGeometry x="410" y="120" width="290" height="340" as="geometry" />
        </mxCell>
        <mxCell id="nJe9BszsL9_7w_oQmeMu-88" value="Client Machine: cellphone or desktop&amp;nbsp;" style="text;html=1;strokeColor=none;fillColor=none;align=left;verticalAlign=middle;whiteSpace=wrap;rounded=0;fontSize=16;" vertex="1" parent="1">
          <mxGeometry x="460" y="160" width="230" height="30" as="geometry" />
        </mxCell>
        <mxCell id="nJe9BszsL9_7w_oQmeMu-89" value="" style="shape=cube;whiteSpace=wrap;html=1;boundedLbl=1;backgroundOutline=1;darkOpacity=0.05;darkOpacity2=0.1;" vertex="1" parent="1">
          <mxGeometry x="450" y="200" width="230" height="250" as="geometry" />
        </mxCell>
        <mxCell id="nJe9BszsL9_7w_oQmeMu-91" value="Client Operating System" style="text;html=1;strokeColor=none;fillColor=none;align=left;verticalAlign=middle;whiteSpace=wrap;rounded=0;fontSize=14;" vertex="1" parent="1">
          <mxGeometry x="500" y="240" width="120" height="30" as="geometry" />
        </mxCell>
        <mxCell id="nJe9BszsL9_7w_oQmeMu-92" value="" style="shape=cube;whiteSpace=wrap;html=1;boundedLbl=1;backgroundOutline=1;darkOpacity=0.05;darkOpacity2=0.1;" vertex="1" parent="1">
          <mxGeometry x="490" y="280" width="160" height="160" as="geometry" />
        </mxCell>
        <mxCell id="nJe9BszsL9_7w_oQmeMu-93" value="Browser" style="text;html=1;strokeColor=none;fillColor=none;align=center;verticalAlign=middle;whiteSpace=wrap;rounded=0;fontSize=14;" vertex="1" parent="1">
          <mxGeometry x="520" y="310" width="100" height="30" as="geometry" />
        </mxCell>
        <mxCell id="nJe9BszsL9_7w_oQmeMu-94" value="" style="rounded=0;whiteSpace=wrap;html=1;" vertex="1" parent="1">
          <mxGeometry x="520" y="370" width="120" height="40" as="geometry" />
        </mxCell>
        <mxCell id="nJe9BszsL9_7w_oQmeMu-95" value="WitsOverFlow" style="text;html=1;strokeColor=none;fillColor=none;align=center;verticalAlign=middle;whiteSpace=wrap;rounded=0;fontSize=14;" vertex="1" parent="1">
          <mxGeometry x="530" y="375" width="100" height="30" as="geometry" />
        </mxCell>
        <mxCell id="nJe9BszsL9_7w_oQmeMu-96" value="" style="endArrow=none;html=1;rounded=0;entryX=0;entryY=0.5;entryDx=0;entryDy=0;exitX=1;exitY=0.5;exitDx=0;exitDy=0;" edge="1" parent="1" source="nJe9BszsL9_7w_oQmeMu-85" target="nJe9BszsL9_7w_oQmeMu-94">
          <mxGeometry width="50" height="50" relative="1" as="geometry">
            <mxPoint x="390" y="440" as="sourcePoint" />
            <mxPoint x="440" y="390" as="targetPoint" />
          </mxGeometry>
        </mxCell>
        <mxCell id="nJe9BszsL9_7w_oQmeMu-97" value="&lt;font style=&quot;font-size: 14px;&quot;&gt;HTTP3&lt;br&gt;&lt;/font&gt;" style="text;html=1;strokeColor=none;fillColor=none;align=center;verticalAlign=middle;whiteSpace=wrap;rounded=0;" vertex="1" parent="1">
          <mxGeometry x="360" y="480" width="60" height="30" as="geometry" />
        </mxCell>
        <mxCell id="nJe9BszsL9_7w_oQmeMu-98" value="" style="shape=cube;whiteSpace=wrap;html=1;boundedLbl=1;backgroundOutline=1;darkOpacity=0.05;darkOpacity2=0.1;" vertex="1" parent="1">
          <mxGeometry x="420" y="590" width="310" height="360" as="geometry" />
        </mxCell>
        <mxCell id="nJe9BszsL9_7w_oQmeMu-99" value="Google Cloud&lt;br&gt;Services" style="text;html=1;strokeColor=none;fillColor=none;align=center;verticalAlign=middle;whiteSpace=wrap;rounded=0;fontSize=16;" vertex="1" parent="1">
          <mxGeometry x="550" y="630" width="60" height="30" as="geometry" />
        </mxCell>
        <mxCell id="nJe9BszsL9_7w_oQmeMu-100" value="" style="shape=cube;whiteSpace=wrap;html=1;boundedLbl=1;backgroundOutline=1;darkOpacity=0.05;darkOpacity2=0.1;" vertex="1" parent="1">
          <mxGeometry x="450" y="700" width="250" height="220" as="geometry" />
        </mxCell>
        <mxCell id="nJe9BszsL9_7w_oQmeMu-101" value="FireStore" style="text;html=1;strokeColor=none;fillColor=none;align=center;verticalAlign=middle;whiteSpace=wrap;rounded=0;fontSize=14;" vertex="1" parent="1">
          <mxGeometry x="520" y="730" width="120" height="30" as="geometry" />
        </mxCell>
        <mxCell id="nJe9BszsL9_7w_oQmeMu-102" value="" style="rounded=0;whiteSpace=wrap;html=1;" vertex="1" parent="1">
          <mxGeometry x="480" y="800" width="210" height="50" as="geometry" />
        </mxCell>
        <mxCell id="nJe9BszsL9_7w_oQmeMu-103" value="noSql FireStore Database" style="text;html=1;strokeColor=none;fillColor=none;align=left;verticalAlign=middle;whiteSpace=wrap;rounded=0;fontSize=14;" vertex="1" parent="1">
          <mxGeometry x="480" y="800" width="170" height="30" as="geometry" />
        </mxCell>
        <mxCell id="nJe9BszsL9_7w_oQmeMu-104" value="" style="endArrow=none;html=1;rounded=0;exitX=1;exitY=1;exitDx=0;exitDy=0;entryX=0;entryY=0.75;entryDx=0;entryDy=0;" edge="1" parent="1" source="nJe9BszsL9_7w_oQmeMu-86" target="nJe9BszsL9_7w_oQmeMu-103">
          <mxGeometry width="50" height="50" relative="1" as="geometry">
            <mxPoint x="390" y="740" as="sourcePoint" />
            <mxPoint x="440" y="690" as="targetPoint" />
          </mxGeometry>
        </mxCell>
      </root>
    </mxGraphModel>
  </diagram>
</mxfile>
